<?xml version="1.0" standalone="no"?>
<!DOCTYPE svg PUBLIC "-//W3C//DTD SVG 20010904//EN"
 "http://www.w3.org/TR/2001/REC-SVG-20010904/DTD/svg10.dtd">
<svg version="1.0" xmlns="http://www.w3.org/2000/svg"
 width="232.000000pt" height="232.000000pt" viewBox="0 0 232.000000 232.000000"
 preserveAspectRatio="xMidYMid meet">
<metadata>
Created by potrace 1.11, written by Peter Selinger 2001-2013
</metadata>
<g transform="translate(0.000000,232.000000) scale(0.100000,-0.100000)"
fill="#000000" stroke="none">
<path d="M1069 1775 c-6 -6 -64 -17 -149 -29 -19 -3 -59 -9 -89 -14 -57 -10
-329 -8 -371 3 -14 3 -40 8 -58 10 -31 4 -34 2 -57 -52 -14 -30 -25 -61 -25
-67 0 -6 19 -13 43 -14 80 -7 167 -7 167 -1 0 4 20 6 45 4 25 -1 45 1 45 5 0
3 12 7 28 7 37 2 97 10 97 13 0 1 11 4 25 6 32 5 65 12 65 14 0 1 12 3 28 4
27 3 27 3 11 -23 -17 -26 -110 -147 -129 -167 -5 -6 -32 -37 -60 -69 -85 -100
-183 -201 -392 -411 -112 -112 -203 -206 -203 -210 0 -7 47 -100 76 -152 18
-30 22 -32 59 -26 22 3 42 7 45 9 27 17 282 23 425 11 l80 -7 26 54 c17 37 22
56 15 63 -27 23 -330 23 -456 -1 -14 -3 -44 -7 -65 -9 -22 -2 -57 -7 -79 -11
-30 -5 -37 -4 -30 7 7 11 90 114 104 128 3 3 32 37 65 75 33 39 64 75 70 81 5
6 39 44 75 84 91 103 379 392 477 479 51 45 84 83 88 99 3 15 8 40 11 56 3 16
7 33 10 37 5 8 -11 21 -17 14z"/>
<path d="M1527 1763 c-4 -3 -20 -8 -35 -9 -16 -2 -46 -9 -68 -16 l-39 -13 -2
-60 c-4 -154 -15 -266 -44 -420 -28 -146 -61 -227 -121 -296 -54 -64 -72 -102
-83 -172 -9 -66 2 -122 31 -157 22 -26 28 -28 50 -18 46 21 139 222 210 453
27 91 41 118 53 110 4 -2 20 2 35 10 14 8 24 9 20 4 -4 -7 1 -7 15 1 12 6 38
13 59 15 20 2 37 4 37 5 0 5 123 19 213 24 29 2 55 -1 58 -5 3 -5 -4 -42 -15
-83 -11 -40 -23 -89 -26 -107 -3 -19 -9 -54 -15 -79 -14 -68 -19 -114 -26
-238 l-7 -113 29 6 c16 4 36 9 44 12 8 3 29 7 45 10 58 10 60 13 61 125 2 189
30 360 91 553 33 102 156 399 190 458 5 9 -45 1 -84 -14 -15 -6 -29 -10 -30
-10 -2 0 -16 -2 -32 -5 -28 -6 -33 -16 -86 -158 -31 -83 -60 -160 -65 -171 -4
-11 -12 -32 -18 -46 -10 -25 -36 -37 -97 -44 -11 -1 -40 -8 -65 -15 -40 -11
-59 -15 -95 -23 -5 -2 -16 -6 -22 -10 -7 -5 -13 -5 -13 -1 0 3 -7 1 -15 -6 -9
-7 -23 -13 -33 -14 -25 -2 -125 -37 -140 -49 -7 -5 -15 -8 -17 -5 -3 2 6 59
20 125 13 66 27 135 30 154 3 19 10 59 15 89 12 71 17 104 25 163 5 41 3 47
-13 47 -10 0 -22 -3 -25 -7z"/>
</g>
</svg>
